# xmcd CD database file
#
# Track frame offsets:
#	150
#	15557
#	31989
#	43746
#	60738
#	71699
#	86343
#	107372
#	127504
#	146911
#	160509
#	173860
#	185333
#	199005
#
# Disc length: 2860 seconds
#
# Revision: 0
# Processed by: cddbd v1.5.2PL0 Copyright (c) Steve Scherf et al.
# Submitted via: ACXtractor (MTCDDB.DLL V2003.12.21)
#
DISCID=ae0b2a0e
DTITLE=Ollie Austin - The Way I Am
DYEAR=2005
DGENRE=Country
TTITLE0=If I Can Find a Clean Shirt
TTITLE1=Tougher than the Rest
TTITLE2=Someday My Day Will Come
TTITLE3=Goin'  Back
TTITLE4=These Hands
TTITLE5=The Way I Am
TTITLE6=Sidewalks of Chicago
TTITLE7=Loveless Cafe
TTITLE8=Seasons of the Heart
TTITLE9=The Pilgrim (Chapter 33)
TTITLE10=I'd be Better off ( in a pine Box)
TTITLE11=If Not for You
TTITLE12=When Love is all we Had to Share
TTITLE13=Send me Back to Caroline
EXTD=ID3G:   2 YEAR: 2005
EXTT0=
EXTT1=
EXTT2=
EXTT3=
EXTT4=
EXTT5=
EXTT6=
EXTT7=
EXTT8=
EXTT9=
EXTT10=
EXTT11=
EXTT12=
EXTT13=
PLAYORDER=
